<mxfile host="app.diagrams.net" modified="2023-09-18T06:38:22.435Z" agent="Mozilla/5.0 (Windows NT 10.0; Win64; x64) AppleWebKit/537.36 (KHTML, like Gecko) Chrome/116.0.0.0 Safari/537.36" etag="KrjO503P5gEzPS4v2ww8" version="21.7.5" type="device">
  <diagram name="Halaman-1" id="vlpawr2Y57BiZ3LMWvtj">
    <mxGraphModel dx="2587" dy="3294" grid="1" gridSize="10" guides="1" tooltips="1" connect="1" arrows="1" fold="1" page="1" pageScale="1" pageWidth="827" pageHeight="1169" math="0" shadow="0">
      <root>
        <mxCell id="0" />
        <mxCell id="1" parent="0" />
        <mxCell id="4SpTV8QktgEQ_dRScUnQ-26" value="" style="shape=parallelogram;perimeter=parallelogramPerimeter;whiteSpace=wrap;html=1;fixedSize=1;" vertex="1" parent="1">
          <mxGeometry x="-56.83000000000001" y="-1840" width="273.68" height="55" as="geometry" />
        </mxCell>
        <mxCell id="4SpTV8QktgEQ_dRScUnQ-9" value="" style="shape=hexagon;perimeter=hexagonPerimeter2;whiteSpace=wrap;html=1;fixedSize=1;" vertex="1" parent="1">
          <mxGeometry x="-158.75" y="-2200" width="477.5" height="80" as="geometry" />
        </mxCell>
        <mxCell id="4SpTV8QktgEQ_dRScUnQ-1" value="" style="ellipse;whiteSpace=wrap;html=1;strokeColor=#000000;" vertex="1" parent="1">
          <mxGeometry x="20" y="-2320" width="120" height="80" as="geometry" />
        </mxCell>
        <mxCell id="4SpTV8QktgEQ_dRScUnQ-2" value="&lt;h1&gt;Start&lt;/h1&gt;" style="text;html=1;strokeColor=none;fillColor=none;spacing=5;spacingTop=-20;whiteSpace=wrap;overflow=hidden;rounded=0;" vertex="1" parent="1">
          <mxGeometry x="45" y="-2300" width="70" height="30" as="geometry" />
        </mxCell>
        <mxCell id="4SpTV8QktgEQ_dRScUnQ-4" value="" style="endArrow=classic;html=1;rounded=0;exitX=0.5;exitY=1;exitDx=0;exitDy=0;" edge="1" parent="1" source="4SpTV8QktgEQ_dRScUnQ-1">
          <mxGeometry width="50" height="50" relative="1" as="geometry">
            <mxPoint x="40" y="-2220" as="sourcePoint" />
            <mxPoint x="80" y="-2200" as="targetPoint" />
          </mxGeometry>
        </mxCell>
        <mxCell id="4SpTV8QktgEQ_dRScUnQ-5" value="" style="shape=parallelogram;perimeter=parallelogramPerimeter;whiteSpace=wrap;html=1;fixedSize=1;" vertex="1" parent="1">
          <mxGeometry x="-18.759999999999998" y="-2080" width="197.5" height="60" as="geometry" />
        </mxCell>
        <mxCell id="4SpTV8QktgEQ_dRScUnQ-8" value="string Judul&lt;br&gt;int harga, jumlah, hlmn&lt;br&gt;double dis, total, bayar, jmlDis&lt;p style=&quot;text-align:justify;line-height:150%&quot; class=&quot;MsoNormal&quot;&gt;&lt;/p&gt;" style="text;html=1;strokeColor=none;fillColor=none;align=center;verticalAlign=middle;whiteSpace=wrap;rounded=0;" vertex="1" parent="1">
          <mxGeometry x="-160" y="-2200" width="480" height="90" as="geometry" />
        </mxCell>
        <mxCell id="4SpTV8QktgEQ_dRScUnQ-10" value="" style="endArrow=classic;html=1;rounded=0;exitX=0.5;exitY=1;exitDx=0;exitDy=0;" edge="1" parent="1">
          <mxGeometry width="50" height="50" relative="1" as="geometry">
            <mxPoint x="80" y="-2120" as="sourcePoint" />
            <mxPoint x="80" y="-2080" as="targetPoint" />
          </mxGeometry>
        </mxCell>
        <mxCell id="4SpTV8QktgEQ_dRScUnQ-12" value="" style="rounded=0;whiteSpace=wrap;html=1;" vertex="1" parent="1">
          <mxGeometry x="-75.91" y="-1980" width="311.85" height="100" as="geometry" />
        </mxCell>
        <mxCell id="4SpTV8QktgEQ_dRScUnQ-11" value="Judul, harga, jumlah, hlmn, dis" style="text;html=1;strokeColor=none;fillColor=none;align=center;verticalAlign=middle;whiteSpace=wrap;rounded=0;" vertex="1" parent="1">
          <mxGeometry x="-1.0700000000000216" y="-2080" width="162.12" height="65" as="geometry" />
        </mxCell>
        <mxCell id="4SpTV8QktgEQ_dRScUnQ-14" value="&lt;p style=&quot;line-height: 150%;&quot; class=&quot;MsoNormal&quot;&gt;total = harga * jumlah&lt;/p&gt;&lt;p style=&quot;line-height: 150%;&quot; class=&quot;MsoNormal&quot;&gt;jmlDis = total * dis&lt;/p&gt;&lt;p style=&quot;line-height: 150%;&quot; class=&quot;MsoNormal&quot;&gt;bayar = total - jmlDis&lt;/p&gt;" style="text;html=1;strokeColor=none;fillColor=none;align=center;verticalAlign=middle;whiteSpace=wrap;rounded=0;" vertex="1" parent="1">
          <mxGeometry x="-120.65000000000003" y="-1950" width="401.33" height="40" as="geometry" />
        </mxCell>
        <mxCell id="4SpTV8QktgEQ_dRScUnQ-21" value="" style="ellipse;whiteSpace=wrap;html=1;strokeColor=#000000;" vertex="1" parent="1">
          <mxGeometry x="20.00999999999999" y="-1740" width="120" height="80" as="geometry" />
        </mxCell>
        <mxCell id="4SpTV8QktgEQ_dRScUnQ-22" value="&lt;h1&gt;End&lt;/h1&gt;" style="text;html=1;strokeColor=none;fillColor=none;spacing=5;spacingTop=-20;whiteSpace=wrap;overflow=hidden;rounded=0;" vertex="1" parent="1">
          <mxGeometry x="50.00999999999999" y="-1720" width="60" height="30" as="geometry" />
        </mxCell>
        <mxCell id="4SpTV8QktgEQ_dRScUnQ-37" value="" style="endArrow=classic;html=1;rounded=0;" edge="1" parent="1">
          <mxGeometry width="50" height="50" relative="1" as="geometry">
            <mxPoint x="79.45999999999998" y="-2020" as="sourcePoint" />
            <mxPoint x="79.80000000000001" y="-1980" as="targetPoint" />
          </mxGeometry>
        </mxCell>
        <mxCell id="4SpTV8QktgEQ_dRScUnQ-38" value="" style="endArrow=classic;html=1;rounded=0;" edge="1" parent="1">
          <mxGeometry width="50" height="50" relative="1" as="geometry">
            <mxPoint x="79.45999999999998" y="-1882" as="sourcePoint" />
            <mxPoint x="79.80000000000001" y="-1842" as="targetPoint" />
          </mxGeometry>
        </mxCell>
        <mxCell id="4SpTV8QktgEQ_dRScUnQ-40" value="" style="endArrow=classic;html=1;rounded=0;" edge="1" parent="1">
          <mxGeometry width="50" height="50" relative="1" as="geometry">
            <mxPoint x="79.70999999999998" y="-1785" as="sourcePoint" />
            <mxPoint x="80.05000000000001" y="-1745" as="targetPoint" />
          </mxGeometry>
        </mxCell>
        <mxCell id="4SpTV8QktgEQ_dRScUnQ-43" value="&lt;p style=&quot;line-height: 150%;&quot; class=&quot;MsoNormal&quot;&gt;&lt;font style=&quot;font-size: 12px;&quot;&gt;total, jmlDis, bayar&lt;/font&gt;&lt;br&gt;&lt;/p&gt;" style="text;html=1;strokeColor=none;fillColor=none;align=center;verticalAlign=middle;whiteSpace=wrap;rounded=0;" vertex="1" parent="1">
          <mxGeometry x="-120.64999999999998" y="-1832.5" width="401.33" height="40" as="geometry" />
        </mxCell>
      </root>
    </mxGraphModel>
  </diagram>
</mxfile>
